<?xml version="1.0" encoding="UTF-8" standalone="no"?>
<!DOCTYPE svg PUBLIC "-//W3C//DTD SVG 1.1//EN"
 "http://www.w3.org/Graphics/SVG/1.1/DTD/svg11.dtd">
<!-- Generated by graphviz version 2.38.0 (20140413.2041)
 -->
<!-- Title: coding Pages: 1 -->
<svg width="409pt" height="388pt"
 viewBox="0.00 0.00 409.30 388.00" xmlns="http://www.w3.org/2000/svg" xmlns:xlink="http://www.w3.org/1999/xlink">
<g id="graph0" class="graph" transform="scale(1 1) rotate(0) translate(4 384)">
<title>coding</title>
<polygon fill="white" stroke="none" points="-4,4 -4,-384 405.297,-384 405.297,4 -4,4"/>
<!-- posexcept? -->
<g id="node1" class="node"><title>posexcept?</title>
<text text-anchor="start" x="106.386" y="-359.849" font-family="TimesNewRomanPSMT" font-size="14.00">Is the word a positive exception ( </text>
<text text-anchor="start" x="296.5" y="-359.849" font-family="TimesNewRomanPSMT" font-style="italic" font-size="14.00">mad</text>
<text text-anchor="start" x="320.604" y="-359.849" font-family="TimesNewRomanPSMT" font-size="14.00">, </text>
<text text-anchor="start" x="327.604" y="-359.849" font-family="TimesNewRomanPSMT" font-style="italic" font-size="14.00">bad</text>
<text text-anchor="start" x="347.818" y="-359.849" font-family="TimesNewRomanPSMT" font-size="14.00">, </text>
<text text-anchor="start" x="354.818" y="-359.849" font-family="TimesNewRomanPSMT" font-style="italic" font-size="14.00">glad</text>
<text text-anchor="start" x="378.921" y="-359.849" font-family="TimesNewRomanPSMT" font-size="14.00"> )?</text>
</g>
<!-- negexcept? -->
<g id="node2" class="node"><title>negexcept?</title>
<text text-anchor="start" x="8" y="-273.849" font-family="TimesNewRomanPSMT" font-size="14.00">Is the word a negative exception ( </text>
<text text-anchor="start" x="201.204" y="-273.849" font-family="TimesNewRomanPSMT" font-style="italic" font-size="14.00">aspirin</text>
<text text-anchor="start" x="239.308" y="-273.849" font-family="TimesNewRomanPSMT" font-size="14.00"> )?</text>
</g>
<!-- posexcept?&#45;&gt;negexcept? -->
<g id="edge2" class="edge"><title>posexcept?&#45;&gt;negexcept?</title>
<path fill="none" stroke="black" d="M225.473,-343.799C207.585,-331.172 183.096,-313.886 163.512,-300.062"/>
<polygon fill="black" stroke="black" points="165.366,-297.086 155.178,-294.178 161.329,-302.805 165.366,-297.086"/>
<text text-anchor="start" x="197.842" y="-314.8" font-family="Times,serif" font-size="14.00"> &#160;no</text>
</g>
<!-- aeh -->
<g id="node6" class="node"><title>aeh</title>
<ellipse fill="none" stroke="black" cx="254.842" cy="-18" rx="18" ry="18"/>
<text text-anchor="middle" x="254.842" y="-14.8493" font-family="TimesNewRomanPSMT" font-size="14.00">aeh</text>
</g>
<!-- posexcept?&#45;&gt;aeh -->
<g id="edge1" class="edge"><title>posexcept?&#45;&gt;aeh</title>
<path fill="none" stroke="black" d="M263.608,-343.783C275.178,-327.549 289.842,-302.036 289.842,-277 289.842,-277 289.842,-277 289.842,-103 289.842,-81.077 279.558,-58.2398 270.139,-41.921"/>
<polygon fill="black" stroke="black" points="272.97,-39.8405 264.778,-33.1222 266.992,-43.483 272.97,-39.8405"/>
<text text-anchor="start" x="289.842" y="-185.8" font-family="Times,serif" font-size="14.00"> &#160;yes</text>
</g>
<!-- tenser? -->
<g id="node3" class="node"><title>tenser?</title>
<text text-anchor="middle" x="144.842" y="-186.849" font-family="TimesNewRomanPSMT" font-size="14.00">Following {m, n, f, θ, s}?</text>
</g>
<!-- negexcept?&#45;&gt;tenser? -->
<g id="edge4" class="edge"><title>negexcept?&#45;&gt;tenser?</title>
<path fill="none" stroke="black" d="M133.743,-257.595C135.632,-246.257 138.137,-231.227 140.289,-218.315"/>
<polygon fill="black" stroke="black" points="143.801,-218.535 141.993,-208.095 136.896,-217.384 143.801,-218.535"/>
<text text-anchor="start" x="138.842" y="-228.8" font-family="Times,serif" font-size="14.00"> &#160;no</text>
</g>
<!-- ae -->
<g id="node5" class="node"><title>ae</title>
<ellipse fill="none" stroke="black" cx="82.8418" cy="-18" rx="18" ry="18"/>
<text text-anchor="middle" x="82.8418" y="-14.8493" font-family="TimesNewRomanPSMT" font-size="14.00">ae</text>
</g>
<!-- negexcept?&#45;&gt;ae -->
<g id="edge3" class="edge"><title>negexcept?&#45;&gt;ae</title>
<path fill="none" stroke="black" d="M101.726,-257.876C84.903,-246.192 65.2571,-229.036 55.8418,-208 31.335,-153.246 54.9741,-81.4473 70.9324,-44.0706"/>
<polygon fill="black" stroke="black" points="74.3292,-45.0444 75.1834,-34.484 67.9301,-42.2068 74.3292,-45.0444"/>
<text text-anchor="start" x="45.8418" y="-142.8" font-family="Times,serif" font-size="14.00"> &#160;yes</text>
</g>
<!-- closed? -->
<g id="node4" class="node"><title>closed?</title>
<text text-anchor="middle" x="191.842" y="-100.849" font-family="TimesNewRomanPSMT" font-size="14.00">Is the syllable closed?</text>
</g>
<!-- tenser?&#45;&gt;closed? -->
<g id="edge5" class="edge"><title>tenser?&#45;&gt;closed?</title>
<path fill="none" stroke="black" d="M154.58,-171.595C161.114,-159.917 169.84,-144.322 177.205,-131.159"/>
<polygon fill="black" stroke="black" points="180.448,-132.531 182.277,-122.095 174.339,-129.113 180.448,-132.531"/>
<text text-anchor="start" x="171.842" y="-142.8" font-family="Times,serif" font-size="14.00"> &#160;yes</text>
</g>
<!-- tenser?&#45;&gt;ae -->
<g id="edge6" class="edge"><title>tenser?&#45;&gt;ae</title>
<path fill="none" stroke="black" d="M126.52,-171.813C114.425,-159.265 99.4542,-141.159 91.8418,-122 82.1458,-97.5974 80.5921,-67.451 81.0414,-46.0932"/>
<polygon fill="black" stroke="black" points="84.5392,-46.2132 81.4109,-36.0907 77.544,-45.9546 84.5392,-46.2132"/>
<text text-anchor="start" x="91.8418" y="-99.8" font-family="Times,serif" font-size="14.00"> &#160;no</text>
</g>
<!-- closed?&#45;&gt;ae -->
<g id="edge8" class="edge"><title>closed?&#45;&gt;ae</title>
<path fill="none" stroke="black" d="M169.521,-85.7986C150.617,-71.2303 123.665,-50.4602 104.85,-35.9607"/>
<polygon fill="black" stroke="black" points="106.894,-33.1167 96.8364,-29.7848 102.621,-38.6613 106.894,-33.1167"/>
<text text-anchor="start" x="144.842" y="-56.8" font-family="Times,serif" font-size="14.00"> &#160;no</text>
</g>
<!-- closed?&#45;&gt;aeh -->
<g id="edge7" class="edge"><title>closed?&#45;&gt;aeh</title>
<path fill="none" stroke="black" d="M204.895,-85.5951C214.625,-72.6218 227.981,-54.8145 238.433,-40.8778"/>
<polygon fill="black" stroke="black" points="241.308,-42.8783 244.508,-32.7783 235.708,-38.6783 241.308,-42.8783"/>
<text text-anchor="start" x="227.842" y="-56.8" font-family="Times,serif" font-size="14.00"> &#160;yes</text>
</g>
</g>
</svg>
