<?xml version="1.0" encoding="UTF-8" standalone="no"?>
<!DOCTYPE svg PUBLIC "-//W3C//DTD SVG 1.1//EN"
 "http://www.w3.org/Graphics/SVG/1.1/DTD/svg11.dtd">
<!-- Generated by graphviz version 2.38.0 (20140413.2041)
 -->
<!-- Title: coding Pages: 1 -->
<svg width="679pt" height="560pt"
 viewBox="0.00 0.00 678.75 560.00" xmlns="http://www.w3.org/2000/svg" xmlns:xlink="http://www.w3.org/1999/xlink">
<g id="graph0" class="graph" transform="scale(1 1) rotate(0) translate(4 556)">
<title>coding</title>
<polygon fill="white" stroke="none" points="-4,4 -4,-556 674.754,-556 674.754,4 -4,4"/>
<!-- posexcept? -->
<g id="node1" class="node"><title>posexcept?</title>
<text text-anchor="start" x="365.386" y="-531.849" font-family="TimesNewRomanPSMT" font-size="14.00">Is the word a positive exception ( </text>
<text text-anchor="start" x="555.5" y="-531.849" font-family="TimesNewRomanPSMT" font-style="italic" font-size="14.00">mad</text>
<text text-anchor="start" x="579.604" y="-531.849" font-family="TimesNewRomanPSMT" font-size="14.00">, </text>
<text text-anchor="start" x="586.604" y="-531.849" font-family="TimesNewRomanPSMT" font-style="italic" font-size="14.00">bad</text>
<text text-anchor="start" x="606.818" y="-531.849" font-family="TimesNewRomanPSMT" font-size="14.00">, </text>
<text text-anchor="start" x="613.818" y="-531.849" font-family="TimesNewRomanPSMT" font-style="italic" font-size="14.00">glad</text>
<text text-anchor="start" x="637.921" y="-531.849" font-family="TimesNewRomanPSMT" font-size="14.00">)?</text>
</g>
<!-- negexcept? -->
<g id="node2" class="node"><title>negexcept?</title>
<text text-anchor="start" x="8" y="-445.849" font-family="TimesNewRomanPSMT" font-size="14.00">Is the word a negative exception ( </text>
<text text-anchor="start" x="201.204" y="-445.849" font-family="TimesNewRomanPSMT" font-style="italic" font-size="14.00">aspirin</text>
<text text-anchor="start" x="239.308" y="-445.849" font-family="TimesNewRomanPSMT" font-size="14.00">)?</text>
</g>
<!-- posexcept?&#45;&gt;negexcept? -->
<g id="edge2" class="edge"><title>posexcept?&#45;&gt;negexcept?</title>
<path fill="none" stroke="black" d="M430.142,-515.9C367.827,-502.052 280.077,-482.552 215.384,-468.176"/>
<polygon fill="black" stroke="black" points="216.131,-464.757 205.61,-466.004 214.613,-471.59 216.131,-464.757"/>
<text text-anchor="start" x="341.092" y="-486.8" font-family="Times,serif" font-size="14.00"> &#160;no</text>
</g>
<!-- aeh -->
<g id="node9" class="node"><title>aeh</title>
<ellipse fill="none" stroke="black" cx="532.092" cy="-18" rx="18" ry="18"/>
<text text-anchor="middle" x="532.092" y="-14.8493" font-family="TimesNewRomanPSMT" font-size="14.00">(aeh)</text>
</g>
<!-- posexcept?&#45;&gt;aeh -->
<g id="edge1" class="edge"><title>posexcept?&#45;&gt;aeh</title>
<path fill="none" stroke="black" d="M581.746,-515.872C614.262,-503.56 645.092,-482.938 645.092,-449 645.092,-449 645.092,-449 645.092,-103 645.092,-60.4663 592.889,-36.9459 559.446,-26.2422"/>
<polygon fill="black" stroke="black" points="560.332,-22.854 549.748,-23.3249 558.316,-29.5572 560.332,-22.854"/>
<text text-anchor="start" x="645.092" y="-271.8" font-family="Times,serif" font-size="14.00"> &#160;yes</text>
</g>
<!-- tenser? -->
<g id="node3" class="node"><title>tenser?</title>
<text text-anchor="middle" x="129.092" y="-358.849" font-family="TimesNewRomanPSMT" font-size="14.00">Following {m, n, f, θ, s}?</text>
</g>
<!-- negexcept?&#45;&gt;tenser? -->
<g id="edge4" class="edge"><title>negexcept?&#45;&gt;tenser?</title>
<path fill="none" stroke="black" d="M129.092,-429.595C129.092,-418.257 129.092,-403.227 129.092,-390.315"/>
<polygon fill="black" stroke="black" points="132.592,-390.095 129.092,-380.095 125.592,-390.095 132.592,-390.095"/>
<text text-anchor="start" x="129.092" y="-400.8" font-family="Times,serif" font-size="14.00"> &#160;no</text>
</g>
<!-- ae -->
<g id="node8" class="node"><title>ae</title>
<ellipse fill="none" stroke="black" cx="91.0918" cy="-18" rx="18" ry="18"/>
<text text-anchor="middle" x="91.0918" y="-14.8493" font-family="TimesNewRomanPSMT" font-size="14.00">(ae)</text>
</g>
<!-- negexcept?&#45;&gt;ae -->
<g id="edge3" class="edge"><title>negexcept?&#45;&gt;ae</title>
<path fill="none" stroke="black" d="M63.5919,-429.925C32.0996,-417.363 1.0918,-396.491 1.0918,-363 1.0918,-363 1.0918,-363 1.0918,-103 1.0918,-67.5939 38.7776,-42.8366 65.3767,-29.7721"/>
<polygon fill="black" stroke="black" points="66.993,-32.8805 74.5844,-25.4899 64.0411,-26.5333 66.993,-32.8805"/>
<text text-anchor="start" x="1.0918" y="-228.8" font-family="Times,serif" font-size="14.00"> &#160;yes</text>
</g>
<!-- tenser&#45;vowel? -->
<g id="node4" class="node"><title>tenser&#45;vowel?</title>
<text text-anchor="middle" x="189.092" y="-272.849" font-family="TimesNewRomanPSMT" font-size="14.00">Following {m, n, f, θ, s}V?</text>
</g>
<!-- tenser?&#45;&gt;tenser&#45;vowel? -->
<g id="edge5" class="edge"><title>tenser?&#45;&gt;tenser&#45;vowel?</title>
<path fill="none" stroke="black" d="M141.524,-343.595C150.027,-331.69 161.438,-315.715 170.952,-302.395"/>
<polygon fill="black" stroke="black" points="173.917,-304.267 176.881,-294.095 168.22,-300.198 173.917,-304.267"/>
<text text-anchor="start" x="163.092" y="-314.8" font-family="Times,serif" font-size="14.00"> &#160;yes</text>
</g>
<!-- tenser?&#45;&gt;ae -->
<g id="edge6" class="edge"><title>tenser?&#45;&gt;ae</title>
<path fill="none" stroke="black" d="M96.2117,-343.985C73.3987,-329.575 47.0918,-306.551 47.0918,-277 47.0918,-277 47.0918,-277 47.0918,-103 47.0918,-79.525 60.7431,-56.1399 72.8379,-40.0278"/>
<polygon fill="black" stroke="black" points="75.8341,-41.8823 79.3006,-31.8706 70.3473,-37.5353 75.8341,-41.8823"/>
<text text-anchor="start" x="47.0918" y="-185.8" font-family="Times,serif" font-size="14.00"> &#160;no</text>
</g>
<!-- sC? -->
<g id="node5" class="node"><title>sC?</title>
<text text-anchor="middle" x="438.092" y="-186.849" font-family="TimesNewRomanPSMT" font-size="14.00">Following sC?</text>
</g>
<!-- tenser&#45;vowel?&#45;&gt;sC? -->
<g id="edge8" class="edge"><title>tenser&#45;vowel?&#45;&gt;sC?</title>
<path fill="none" stroke="black" d="M239.781,-257.9C280.148,-244.282 336.718,-225.198 379.113,-210.897"/>
<polygon fill="black" stroke="black" points="380.391,-214.159 388.747,-207.646 378.153,-207.526 380.391,-214.159"/>
<text text-anchor="start" x="329.092" y="-228.8" font-family="Times,serif" font-size="14.00"> &#160;no</text>
</g>
<!-- resyllab? -->
<g id="node7" class="node"><title>resyllab?</title>
<text text-anchor="middle" x="189.092" y="-100.849" font-family="TimesNewRomanPSMT" font-size="14.00">Following {m, n, f, θ, s}&#45;{əd, əz, ɪŋ}?</text>
</g>
<!-- tenser&#45;vowel?&#45;&gt;resyllab? -->
<g id="edge7" class="edge"><title>tenser&#45;vowel?&#45;&gt;resyllab?</title>
<path fill="none" stroke="black" d="M189.092,-257.764C189.092,-228.159 189.092,-167.433 189.092,-132.112"/>
<polygon fill="black" stroke="black" points="192.592,-132.029 189.092,-122.029 185.592,-132.029 192.592,-132.029"/>
<text text-anchor="start" x="189.092" y="-185.8" font-family="Times,serif" font-size="14.00"> &#160;yes</text>
</g>
<!-- maxons? -->
<g id="node6" class="node"><title>maxons?</title>
<text text-anchor="start" x="328.761" y="-100.849" font-family="TimesNewRomanPSMT" font-size="14.00">Following CC+ which is a valid onset?</text>
</g>
<!-- sC?&#45;&gt;maxons? -->
<g id="edge12" class="edge"><title>sC?&#45;&gt;maxons?</title>
<path fill="none" stroke="black" d="M438.092,-171.595C438.092,-160.257 438.092,-145.227 438.092,-132.315"/>
<polygon fill="black" stroke="black" points="441.592,-132.095 438.092,-122.095 434.592,-132.095 441.592,-132.095"/>
<text text-anchor="start" x="438.092" y="-142.8" font-family="Times,serif" font-size="14.00"> &#160;no</text>
</g>
<!-- sC?&#45;&gt;aeh -->
<g id="edge11" class="edge"><title>sC?&#45;&gt;aeh</title>
<path fill="none" stroke="black" d="M487.241,-176.463C515.023,-166.583 547.44,-149.714 564.092,-122 579.518,-96.3252 563.172,-62.5214 548.737,-40.7716"/>
<polygon fill="black" stroke="black" points="551.566,-38.7101 542.967,-32.5209 545.83,-42.7217 551.566,-38.7101"/>
<text text-anchor="start" x="570.092" y="-99.8" font-family="Times,serif" font-size="14.00"> &#160;yes</text>
</g>
<!-- maxons?&#45;&gt;ae -->
<g id="edge14" class="edge"><title>maxons?&#45;&gt;ae</title>
<path fill="none" stroke="black" d="M423.112,-85.9977C412.319,-74.9388 396.768,-61.2678 380.092,-54 333.557,-33.719 182.107,-23.7159 119.045,-20.3484"/>
<polygon fill="black" stroke="black" points="119.193,-16.8515 109.025,-19.8299 118.831,-23.8421 119.193,-16.8515"/>
<text text-anchor="start" x="402.092" y="-56.8" font-family="Times,serif" font-size="14.00"> &#160;no</text>
</g>
<!-- maxons?&#45;&gt;aeh -->
<g id="edge13" class="edge"><title>maxons?&#45;&gt;aeh</title>
<path fill="none" stroke="black" d="M457.569,-85.5951C473.23,-71.5999 495.187,-51.9791 511.21,-37.6607"/>
<polygon fill="black" stroke="black" points="513.858,-39.9875 518.983,-30.7144 509.194,-34.7679 513.858,-39.9875"/>
<text text-anchor="start" x="490.092" y="-56.8" font-family="Times,serif" font-size="14.00"> &#160;yes</text>
</g>
<!-- resyllab?&#45;&gt;ae -->
<g id="edge10" class="edge"><title>resyllab?&#45;&gt;ae</title>
<path fill="none" stroke="black" d="M168.786,-85.5951C152.212,-71.3889 128.876,-51.3862 112.111,-37.0168"/>
<polygon fill="black" stroke="black" points="114.338,-34.3159 104.468,-30.4653 109.783,-39.6307 114.338,-34.3159"/>
<text text-anchor="start" x="146.092" y="-56.8" font-family="Times,serif" font-size="14.00"> &#160;no</text>
</g>
<!-- resyllab?&#45;&gt;aeh -->
<g id="edge9" class="edge"><title>resyllab?&#45;&gt;aeh</title>
<path fill="none" stroke="black" d="M241.986,-85.9495C274.268,-75.8877 316.492,-63.3369 354.43,-54 406.992,-41.0639 469.221,-29.6956 504.334,-23.6384"/>
<polygon fill="black" stroke="black" points="505.052,-27.0666 514.32,-21.9332 503.873,-20.1665 505.052,-27.0666"/>
<text text-anchor="start" x="355.092" y="-56.8" font-family="Times,serif" font-size="14.00"> &#160;yes</text>
</g>
</g>
</svg>
